<svg width="20" height="20" viewBox="0 0 20 20" fill="none" xmlns="http://www.w3.org/2000/svg">
<path d="M10 20C15.5191 20 20 15.5191 20 10C20 4.48087 15.5191 0 10 0C4.48087 0 0 4.48087 0 10C0 15.5191 4.48087 20 10 20ZM10 1.63934C14.6175 1.63934 18.3607 5.38246 18.3607 10C18.3607 14.6175 14.6175 18.3607 10 18.3607C5.38246 18.3607 1.63934 14.6175 1.63934 10C1.63934 5.38246 5.38246 1.63934 10 1.63934Z" fill="#2B2B2B"/>
<path d="M9.97274 15.1913C10.4372 15.1913 10.7925 14.836 10.7925 14.3715L10.7923 9.18028C10.7923 8.71582 10.437 8.36056 9.97255 8.36056C9.50808 8.36056 9.15283 8.71581 9.15283 9.18028V14.3715C9.15302 14.8362 9.53553 15.1913 9.97275 15.1913H9.97274Z" fill="#2B2B2B"/>
<path d="M9.97255 6.99454C10.437 6.99454 10.7923 6.63929 10.7923 6.17482V5.3551C10.7923 4.89064 10.437 4.53538 9.97255 4.53538C9.5081 4.53538 9.15283 4.89063 9.15283 5.3551V6.17482C9.15283 6.63947 9.53534 6.99454 9.97255 6.99454Z" fill="#2B2B2B"/>
</svg>
