<svg width="16" height="16" viewBox="0 0 16 16" fill="none" xmlns="http://www.w3.org/2000/svg">
<path d="M7.83765 6.89051C8.44335 6.89318 9.02539 6.65506 9.45531 6.2283C9.88524 5.80166 10.128 5.22155 10.1298 4.61573C10.1316 4.01003 9.89252 3.42849 9.46516 2.99915C9.0379 2.56985 8.45733 2.32808 7.85163 2.32709C7.24581 2.32624 6.66461 2.56619 6.23592 2.99415C5.80733 3.42212 5.56641 4.00295 5.56641 4.60877C5.56592 5.21217 5.80478 5.79129 6.23058 6.21892C6.65626 6.64664 7.23416 6.88819 7.83768 6.89048L7.83765 6.89051ZM7.83765 3.71855C8.07445 3.71576 8.30252 3.80734 8.47149 3.97317C8.64059 4.13888 8.73667 4.36512 8.73849 4.60191C8.74031 4.83859 8.64787 5.06641 8.48144 5.23479C8.31501 5.40317 8.08841 5.49839 7.85161 5.49924C7.61481 5.50021 7.38749 5.4068 7.2197 5.23976C7.05193 5.07272 6.95767 4.84564 6.95767 4.60897C6.9567 4.37435 7.04878 4.14885 7.21376 3.98203C7.37874 3.81511 7.60303 3.72036 7.83765 3.71854V3.71855Z" fill="#2B2B2B"/>
<path d="M0.404851 15.3704C0.734098 15.7677 1.22272 15.9984 1.73876 16H13.9366C14.452 15.9999 14.9409 15.7713 15.2712 15.3757C15.6017 14.9801 15.7396 14.4585 15.6479 13.9513L14.9818 10.2505C14.9093 9.84944 14.6982 9.48659 14.3855 9.2253C14.0727 8.96412 13.6781 8.82096 13.2706 8.82096H11.222L11.7106 8.17402C12.4529 7.19883 12.8229 5.99069 12.7541 4.76696C12.582 2.08712 10.4011 0 7.79429 0C5.18737 0 3.00652 2.087 2.8292 4.75827C2.76042 5.9819 3.13041 7.18991 3.87271 8.16501L4.35966 8.82068H2.40489C1.99742 8.82068 1.6028 8.96382 1.29008 9.22501C0.977352 9.48632 0.766271 9.84916 0.693726 10.2502L0.0276246 13.9458C-0.063842 14.453 0.0743285 14.9747 0.405006 15.37L0.404851 15.3704ZM4.21687 4.85081C4.32993 3.15346 5.70037 1.39158 7.79442 1.39158C9.88834 1.39158 11.2586 3.14803 11.3717 4.84522C11.4168 5.73843 11.1417 6.6184 10.596 7.32696L7.79435 11.0834L4.99259 7.33224C4.44695 6.62368 4.17193 5.74371 4.21693 4.85062L4.21687 4.85081ZM1.40312 14.1931L2.06388 10.4994C2.09372 10.3314 2.24111 10.2099 2.41179 10.2124H5.40302L7.23769 12.661C7.36907 12.8369 7.57566 12.9405 7.7951 12.9405C8.01453 12.9405 8.22114 12.8369 8.35238 12.661L10.182 10.2124H13.2706C13.4407 10.2097 13.5878 10.3303 13.6184 10.4976L14.2723 14.195C14.2905 14.2973 14.2621 14.4022 14.1947 14.4813C14.1274 14.5604 14.0283 14.6053 13.9245 14.6037H1.73876C1.63455 14.6054 1.53508 14.5603 1.46763 14.4808C1.4003 14.4013 1.37216 14.2957 1.39084 14.1932L1.40312 14.1931Z" fill="#2B2B2B"/>
</svg>
