<svg width="21" height="16" viewBox="0 0 21 16" fill="none" xmlns="http://www.w3.org/2000/svg">
<path d="M17.8102 0H2.46209C1.80934 0.000771713 1.18351 0.260378 0.722007 0.721888C0.260346 1.18355 0.000750732 1.80926 0 2.46197V13.538C0.000771713 14.1908 0.260378 14.8165 0.721888 15.2781C1.18355 15.7396 1.80926 15.9992 2.46213 16H17.8103C18.4631 15.9994 19.0888 15.7398 19.5505 15.2781C20.012 14.8166 20.2716 14.1907 20.2724 13.538V2.46197C20.2716 1.80923 20.012 1.18355 19.5505 0.721888C19.0888 0.260386 18.4631 0.000790244 17.8103 0H17.8102ZM0.922294 3.8381H19.3504V4.85846H0.922294V3.8381ZM2.46236 0.921899H17.8105C18.2189 0.922362 18.6103 1.08489 18.8989 1.37352C19.1877 1.6623 19.3501 2.05373 19.3506 2.46197V2.9162H0.922452V2.46197C0.922915 2.05373 1.08529 1.66216 1.37392 1.37352C1.6627 1.08474 2.05412 0.922373 2.46252 0.921899H2.46236ZM17.8105 15.0779H2.46236C2.05396 15.0775 1.66256 14.915 1.37392 14.6263C1.08514 14.3375 0.922768 13.9461 0.922294 13.5379V5.78005H19.3504V13.5379C19.3499 13.9461 19.1876 14.3375 18.8988 14.6263C18.6101 14.9149 18.2187 15.0773 17.8103 15.0779H17.8105Z" fill="#2B2B2B"/>
<path d="M15.694 10.5312C15.179 10.5329 14.6894 10.7557 14.35 11.1433C14.0247 10.7742 13.5631 10.5538 13.0717 10.533C12.5802 10.5123 12.1016 10.6931 11.7465 11.0336C11.3915 11.3739 11.1907 11.8445 11.1907 12.3364C11.1907 12.8283 11.3915 13.2987 11.7465 13.6392C12.1016 13.9796 12.5802 14.1603 13.0717 14.1396C13.5631 14.1189 14.0247 13.8985 14.35 13.5293C14.7559 13.9865 15.3662 14.2066 15.9706 14.1139C16.5748 14.0209 17.091 13.628 17.3412 13.07C17.5912 12.5121 17.5414 11.8654 17.2086 11.3523C16.8757 10.8394 16.3055 10.5302 15.694 10.5314L15.694 10.5312ZM13.0061 13.2191V13.2192C12.7718 13.2192 12.5472 13.1263 12.3816 12.9607C12.2158 12.7951 12.1228 12.5705 12.1228 12.3362C12.1228 12.1021 12.2158 11.8773 12.3815 11.7117C12.5471 11.5461 12.7716 11.4532 13.0059 11.4532C13.2401 11.4532 13.4646 11.5462 13.6303 11.7119C13.7959 11.8775 13.889 12.1022 13.8888 12.3363C13.8885 12.5705 13.7954 12.7948 13.63 12.9602C13.4644 13.1257 13.2401 13.2189 13.0061 13.2192L13.0061 13.2191ZM15.694 13.2191V13.2192C15.4599 13.2192 15.2351 13.1263 15.0695 12.9607C14.9039 12.7951 14.8108 12.5705 14.8108 12.3362C14.8107 12.1021 14.9037 11.8773 15.0694 11.7117C15.235 11.5461 15.4597 11.4532 15.6938 11.4532C15.9281 11.4532 16.1527 11.5462 16.3183 11.7119C16.4839 11.8775 16.5769 12.1022 16.5769 12.3363C16.5764 12.5705 16.4833 12.7948 16.3179 12.9602C16.1524 13.1256 15.928 13.2189 15.694 13.2192L15.694 13.2191Z" fill="#2B2B2B"/>
</svg>
