<svg width="24" height="24" viewBox="0 0 24 24" fill="none" xmlns="http://www.w3.org/2000/svg">
<g id="&#240;&#159;&#166;&#134; icon &#34;globe&#34;">
<path id="Vector" d="M12 23C18.0751 23 23 18.0751 23 12C23 5.92487 18.0751 1 12 1C5.92487 1 1 5.92487 1 12C1 18.0751 5.92487 23 12 23Z" stroke="#F3B978" stroke-width="2" stroke-linecap="round" stroke-linejoin="round"/>
<path id="Vector_2" d="M1.55 12.55L7.6 14.75L6.5 18.6L7.6 21.9" stroke="#F3B978" stroke-width="2" stroke-linecap="round" stroke-linejoin="round"/>
<path id="Vector_3" d="M17.5 21.35L16.95 18.6L14.2 17.5V13.65L17.5 12.55L22.45 13.1" stroke="#F3B978" stroke-width="2" stroke-linecap="round" stroke-linejoin="round"/>
<path id="Vector_4" d="M19.7 4.85001L19.15 6.50001L15.3 7.05001V10.35L18.05 9.25001H20.25L22.45 10.35" stroke="#F3B978" stroke-width="2" stroke-linecap="round" stroke-linejoin="round"/>
<path id="Vector_5" d="M1.55 10.35L4.3 8.15001L7.05 7.60001L9.25 4.30001L8.15 2.10001" stroke="#F3B978" stroke-width="2" stroke-linecap="round" stroke-linejoin="round"/>
</g>
</svg>
